<svg width="33" height="33" viewBox="0 0 33 33" fill="none" xmlns="http://www.w3.org/2000/svg">
<circle cx="16.5" cy="16.5" r="16.5" fill="#F0536B"/>
<path d="M13.0983 26C12.4698 25.9659 11.8785 25.6918 11.4462 25.2343C10.9291 24.7367 10.4677 24.1843 10.07 23.5869C9.44885 22.6972 8.95784 21.7234 8.61185 20.695C8.22028 19.5885 8.01429 18.4249 8.0022 17.2512C7.97178 16.0996 8.25692 14.9616 8.82673 13.9604C9.24406 13.2388 9.83933 12.6362 10.5557 12.2101C11.2642 11.7858 12.0727 11.5574 12.8984 11.5483C13.5208 11.5852 14.1325 11.7275 14.7073 11.9692C15.1661 12.1711 15.6478 12.313 16.1425 12.391C16.6882 12.2767 17.2215 12.1093 17.7346 11.8912C18.3419 11.654 18.9849 11.5212 19.6365 11.4983C19.7235 11.4983 19.8094 11.4983 19.8924 11.5083C21.3215 11.5493 22.6508 12.2511 23.4903 13.4076C22.8351 13.7581 22.2899 14.2835 21.9153 14.9253C21.5408 15.5672 21.3515 16.3003 21.3685 17.0433C21.362 17.6114 21.4759 18.1745 21.7028 18.6954C21.9297 19.2162 22.2643 19.6831 22.6848 20.0652C23.0675 20.4298 23.5131 20.7221 24 20.9279C23.9001 21.2278 23.7851 21.5177 23.6632 21.8095C23.3864 22.4546 23.0448 23.0698 22.6438 23.6459C22.2646 24.2229 21.8232 24.7566 21.3275 25.2373C20.8754 25.686 20.2728 25.9507 19.6365 25.98C19.0972 25.9561 18.5673 25.8296 18.0754 25.6071C17.5449 25.376 16.9748 25.2494 16.3964 25.2343C15.8016 25.246 15.2146 25.3719 14.6674 25.6051C14.1947 25.8185 13.6897 25.9512 13.1732 25.998L13.0983 26ZM16.2465 11.4983C16.1715 11.4983 16.0965 11.4983 16.0216 11.4893C16.0058 11.3704 15.9975 11.2505 15.9966 11.1305C16.0293 10.132 16.4194 9.17843 17.096 8.44347C17.4744 8.02108 17.933 7.67821 18.4452 7.43484C18.9225 7.18908 19.4441 7.04124 19.9793 7C19.9943 7.13095 19.9943 7.2589 19.9943 7.38086C19.9803 8.36366 19.6111 9.30817 18.9549 10.0399C18.6372 10.4659 18.2301 10.8173 17.7622 11.0692C17.2943 11.3212 16.777 11.4677 16.2465 11.4983Z" fill="#2A3747"/>
</svg>
