<svg width="33" height="33" viewBox="0 0 33 33" fill="none" xmlns="http://www.w3.org/2000/svg">
<path d="M16.5 0C7.38719 0 0 7.38719 0 16.5C0 25.6128 7.38719 33 16.5 33C25.6128 33 33 25.6128 33 16.5C33 7.38719 25.6128 0 16.5 0ZM23.2117 13.5162C23.2186 13.6572 23.2203 13.7981 23.2203 13.9356C23.2203 18.2325 19.953 23.1842 13.9752 23.1842C12.2088 23.1872 10.4792 22.6798 8.99422 21.7233C9.24687 21.7542 9.50641 21.7662 9.76937 21.7662C11.2922 21.7662 12.693 21.2489 13.805 20.3758C13.1273 20.3625 12.4707 20.1381 11.9266 19.7339C11.3825 19.3296 10.9781 18.7658 10.7697 18.1208C11.2564 18.2133 11.7577 18.1939 12.2358 18.0641C11.5002 17.9153 10.8388 17.5168 10.3636 16.936C9.88834 16.3552 9.62862 15.6279 9.62844 14.8775V14.838C10.0667 15.0803 10.5686 15.2281 11.1014 15.2453C10.4118 14.7863 9.92369 14.0812 9.7368 13.2741C9.5499 12.4671 9.67837 11.6192 10.0959 10.9037C10.9123 11.9075 11.9303 12.7286 13.0841 13.314C14.2379 13.8993 15.5018 14.2358 16.7939 14.3017C16.6296 13.6044 16.7003 12.8724 16.995 12.2195C17.2897 11.5665 17.7918 11.0292 18.4234 10.6911C19.055 10.353 19.7805 10.233 20.4873 10.3497C21.1941 10.4665 21.8425 10.8136 22.3317 11.3369C23.059 11.193 23.7565 10.9262 24.3942 10.548C24.1518 11.301 23.6443 11.9405 22.9659 12.3475C23.6102 12.2699 24.2393 12.0967 24.8325 11.8336C24.3968 12.4865 23.8479 13.0564 23.2117 13.5162Z" fill="#F0536B"/>
</svg>
